<?xml version="1.0" standalone="no"?>
<!DOCTYPE svg PUBLIC "-//W3C//DTD SVG 20010904//EN"
 "http://www.w3.org/TR/2001/REC-SVG-20010904/DTD/svg10.dtd">
<svg version="1.0" xmlns="http://www.w3.org/2000/svg"
 width="200.000000pt" height="90.000000pt" viewBox="0 0 200.000000 90.000000"
 preserveAspectRatio="xMidYMid meet">

<g transform="translate(0.000000,90.000000) scale(0.100000,-0.100000)"
fill="#f21562" stroke="none">
<path d="M794 876 c-111 -25 -221 -96 -289 -184 -36 -48 -40 -50 -59 -36 -15
10 -51 14 -133 14 l-113 0 2 -77 2 -78 3 73 4 72 99 0 c114 0 156 -11 144 -38
-20 -45 -54 -162 -59 -204 l-6 -48 -95 0 -94 0 2 -87 2 -88 3 83 4 83 92 -3
91 -3 8 -44 c13 -78 53 -143 126 -203 l32 -27 -22 -13 c-17 -9 -90 -14 -261
-16 -141 -2 -235 -7 -232 -13 8 -12 330 -11 430 3 113 14 133 13 200 -12 154
-57 370 -25 501 75 17 13 35 21 39 17 4 -4 5 4 3 18 -5 36 -29 36 -88 -1 -119
-73 -285 -92 -423 -49 -38 12 -67 24 -65 28 2 4 12 24 21 45 20 43 18 42 58
21 43 -22 156 -29 231 -15 35 7 99 30 143 51 75 36 114 69 183 154 14 17 32
102 32 150 0 98 117 171 217 136 26 -9 27 -9 9 5 -12 9 -41 15 -75 15 -62 0
-109 -22 -137 -65 l-17 -26 -23 57 c-29 71 -66 118 -127 160 -101 70 -243 97
-363 70z m276 -87 c63 -30 129 -92 156 -147 14 -27 19 -59 19 -117 0 -69 -4
-86 -27 -126 -15 -26 -42 -59 -60 -74 -109 -92 -350 -137 -400 -75 -21 26 -25
109 -5 114 6 2 53 16 102 31 157 46 225 108 225 204 0 31 -6 48 -25 66 -34 35
-128 35 -201 1 -65 -30 -146 -113 -181 -185 -35 -72 -44 -174 -18 -230 16 -37
16 -40 -4 -80 -12 -22 -26 -41 -32 -41 -22 0 -109 94 -125 136 -26 69 -16 192
22 274 57 120 174 230 284 265 72 23 203 15 270 -16z m-92 -151 c18 -18 14
-79 -7 -115 -23 -37 -85 -75 -158 -97 -62 -18 -64 -15 -27 64 57 122 148 192
192 148z"/>
<path d="M641 617 c-2 -40 -28 -98 -58 -129 -15 -15 -23 -31 -19 -35 12 -12
65 58 77 100 6 21 8 51 6 65 l-4 27 -2 -28z"/>
<path d="M1698 578 c-80 -21 -102 -44 -26 -26 102 24 118 29 118 38 0 12 2 12
-92 -12z"/>
<path d="M1757 222 c-56 -123 -152 -182 -295 -182 -48 1 -97 8 -129 19 -66 22
-68 17 -5 -11 37 -17 67 -22 142 -22 84 -1 101 2 152 27 31 15 71 44 89 64 34
39 83 136 77 154 -2 5 -16 -17 -31 -49z"/>
<path d="M1832 193 c-7 -2 -17 -14 -23 -26 -10 -21 -9 -21 5 -3 9 10 32 22 53
26 34 7 35 8 8 8 -16 0 -36 -2 -43 -5z"/>
<path d="M1240 106 c0 -2 8 -10 18 -17 15 -13 16 -12 3 4 -13 16 -21 21 -21
13z"/>
<path d="M1858 103 c7 -3 16 -2 19 1 4 3 -2 6 -13 5 -11 0 -14 -3 -6 -6z"/>
<path d="M1952 69 c-7 -11 -27 -27 -45 -34 -18 -8 -25 -14 -15 -15 19 0 86 55
78 64 -3 3 -11 -4 -18 -15z"/>
</g>
</svg>
