<?xml version="1.0" standalone="no"?>
<!DOCTYPE svg PUBLIC "-//W3C//DTD SVG 20010904//EN"
 "http://www.w3.org/TR/2001/REC-SVG-20010904/DTD/svg10.dtd">
<svg version="1.0" xmlns="http://www.w3.org/2000/svg"
 width="223.000000pt" height="82.000000pt" viewBox="0 0 223.000000 82.000000"
 preserveAspectRatio="xMidYMid meet">

<g transform="translate(0.000000,82.000000) scale(0.100000,-0.100000)"
fill="#000000" stroke="none">
<path d="M280 770 l0 -50 63 -2 62 -1 -60 -6 -60 -6 -3 -37 -3 -38 60 0 c34 0
61 -4 61 -10 0 -6 -27 -10 -60 -10 l-60 0 0 -40 0 -39 63 -4 62 -3 -62 -2 -63
-2 0 -40 0 -40 60 0 c33 0 60 -4 60 -10 0 -6 -27 -10 -61 -10 l-60 0 3 -37 3
-38 60 -6 60 -6 -63 -1 -63 -2 3 -47 3 -48 828 -3 827 -2 0 49 0 50 -57 4 -58
3 58 2 57 2 0 40 0 40 -55 0 c-30 0 -55 5 -55 10 0 6 25 10 55 10 l55 0 0 40
0 39 -57 4 -58 3 58 2 57 2 0 40 0 40 -55 0 c-30 0 -55 5 -55 10 0 6 25 10 55
10 l55 0 0 40 0 39 -57 4 -58 3 58 2 57 2 0 50 0 50 -830 0 -830 0 0 -50z
m576 -62 c-3 -7 -7 -25 -10 -40 -6 -28 -7 -28 -90 -28 -83 0 -84 0 -90 -27 -4
-16 -9 -36 -12 -45 -5 -16 3 -18 76 -18 71 0 81 -2 76 -16 -3 -9 -6 -24 -6
-34 0 -17 -9 -20 -82 -22 l-83 -3 -14 -72 -15 -73 -58 0 c-41 0 -56 3 -53 13
2 6 20 89 40 182 19 94 37 176 40 183 3 9 41 12 144 12 108 0 139 -3 137 -12z
m133 -120 c-16 -73 -34 -161 -41 -195 l-11 -63 -59 0 c-32 0 -58 1 -58 3 0 1
18 86 40 187 22 101 40 188 40 192 0 5 26 8 59 8 l59 0 -29 -132z m397 120
c-3 -7 -7 -25 -10 -40 l-6 -28 -95 0 c-52 0 -95 -4 -95 -9 0 -5 -3 -23 -6 -40
l-6 -31 87 0 c86 0 87 0 81 -22 -3 -13 -6 -29 -6 -35 0 -10 -25 -13 -90 -13
l-90 0 -6 -27 c-3 -16 -7 -34 -10 -40 -2 -10 20 -13 91 -13 103 0 104 -1 89
-57 -6 -23 -9 -23 -155 -23 -83 0 -149 4 -149 9 0 11 69 339 76 364 5 15 21
17 154 17 115 0 148 -3 146 -12z m343 -12 c33 -30 29 -90 -8 -127 -16 -16 -38
-29 -48 -29 -13 0 -9 -5 13 -19 41 -25 50 -62 27 -109 -34 -67 -58 -77 -209
-80 -117 -3 -134 -2 -134 12 0 16 67 339 75 364 4 11 33 13 134 10 110 -3 132
-6 150 -22z"/>
<path d="M1536 628 c-13 -48 -7 -68 18 -68 39 0 74 17 81 40 10 30 -12 50 -55
50 -31 0 -39 -4 -44 -22z"/>
<path d="M1507 483 c-2 -4 -7 -25 -11 -45 l-7 -38 38 0 c52 0 85 24 81 58 -3
24 -8 27 -50 30 -25 2 -48 -1 -51 -5z"/>
<path d="M1710 130 c0 -5 7 -7 15 -4 8 4 15 8 15 10 0 2 -7 4 -15 4 -8 0 -15
-4 -15 -10z"/>
<path d="M0 60 c0 -38 4 -50 15 -50 8 0 15 9 15 20 0 13 7 20 19 20 10 0 24 7
31 15 19 22 -5 45 -46 45 l-34 0 0 -50z m60 20 c0 -5 -7 -10 -15 -10 -8 0 -15
5 -15 10 0 6 7 10 15 10 8 0 15 -4 15 -10z"/>
<path d="M100 60 l0 -50 35 0 c19 0 35 5 35 10 0 6 -9 10 -20 10 -11 0 -20 5
-20 10 0 6 9 10 20 10 11 0 20 5 20 10 0 6 -9 10 -20 10 -11 0 -20 5 -20 10 0
6 9 10 20 10 11 0 20 5 20 10 0 6 -16 10 -35 10 l-35 0 0 -50z"/>
<path d="M190 60 l0 -50 35 0 c19 0 35 5 35 10 0 6 -9 10 -20 10 -17 0 -20 7
-20 40 0 29 -4 40 -15 40 -11 0 -15 -12 -15 -50z"/>
<path d="M284 86 c-13 -53 13 -84 59 -72 31 7 44 44 27 75 -8 15 -20 21 -45
21 -28 0 -36 -4 -41 -24z m64 -25 c-4 -32 -34 -40 -43 -11 -8 25 11 51 31 43
9 -3 14 -16 12 -32z"/>
<path d="M440 60 c0 -38 4 -50 15 -50 8 0 15 9 15 19 0 12 8 21 23 24 l22 4
-22 8 c-28 9 -30 25 -3 25 11 0 20 5 20 10 0 6 -16 10 -35 10 l-35 0 0 -50z"/>
<path d="M530 72 c0 -43 14 -62 45 -62 31 0 45 19 45 62 0 49 -18 50 -22 1 -2
-30 -7 -38 -23 -38 -16 0 -21 8 -23 38 -4 49 -22 48 -22 -1z"/>
<path d="M635 100 c3 -5 13 -10 21 -10 10 0 14 -12 14 -40 0 -22 5 -40 10 -40
6 0 10 18 10 40 0 29 4 40 15 40 8 0 15 5 15 10 0 6 -21 10 -46 10 -27 0 -43
-4 -39 -10z"/>
<path d="M740 65 c0 -40 3 -45 27 -51 38 -10 58 7 61 55 2 32 0 41 -12 41 -12
0 -16 -11 -16 -41 0 -33 -3 -40 -17 -37 -13 2 -19 14 -21 41 -4 52 -22 46 -22
-8z"/>
<path d="M850 61 c0 -39 4 -51 15 -51 8 0 15 9 15 20 0 26 16 26 23 0 10 -39
26 -20 24 28 -2 47 -2 47 -39 50 l-38 3 0 -50z m50 19 c0 -5 -4 -10 -10 -10
-5 0 -10 5 -10 10 0 6 5 10 10 10 6 0 10 -4 10 -10z"/>
<path d="M962 98 c-16 -16 -15 -63 2 -77 8 -7 27 -11 43 -9 33 4 54 48 37 76
-13 21 -65 27 -82 10z m56 -36 c3 -27 0 -32 -17 -32 -16 0 -21 6 -21 28 0 53
33 56 38 4z"/>
<path d="M1110 60 c0 -49 1 -50 31 -50 45 0 69 16 69 48 0 38 -17 52 -62 52
l-38 0 0 -50z m73 18 c6 -19 -11 -48 -28 -48 -10 0 -15 10 -15 30 0 23 5 30
19 30 11 0 21 -6 24 -12z"/>
<path d="M1250 85 c-6 -14 -14 -36 -20 -50 -7 -20 -6 -25 5 -25 8 0 15 5 15
10 0 6 11 10 25 10 14 0 25 -4 25 -10 0 -5 7 -10 15 -10 19 0 19 -1 -5 54 -22
51 -45 59 -60 21z m28 -34 c-15 -5 -19 4 -11 24 6 18 7 18 13 -1 4 -10 3 -21
-2 -23z"/>
<path d="M1390 60 c0 -38 4 -50 15 -50 11 0 15 12 15 50 0 38 -4 50 -15 50
-11 0 -15 -12 -15 -50z"/>
<path d="M1440 60 c0 -57 20 -69 21 -12 l1 37 16 -37 c10 -23 24 -38 35 -38
14 0 17 9 17 50 0 57 -20 69 -21 13 l-1 -38 -15 38 c-10 24 -22 37 -34 37 -16
0 -19 -8 -19 -50z"/>
<path d="M1550 60 c0 -49 1 -50 31 -50 45 0 69 16 69 48 0 38 -17 52 -62 52
l-38 0 0 -50z m68 3 c-2 -17 -10 -29 -20 -31 -14 -3 -18 3 -18 27 0 25 4 31
21 31 16 0 20 -5 17 -27z"/>
<path d="M1672 69 c3 -48 23 -65 61 -55 24 6 27 11 27 51 0 54 -18 60 -22 8
-2 -27 -8 -39 -20 -41 -15 -3 -18 4 -18 37 0 30 -4 41 -16 41 -12 0 -14 -9
-12 -41z"/>
<path d="M1787 97 c-7 -19 3 -33 31 -41 35 -11 27 -29 -10 -20 -29 6 -31 5
-19 -10 17 -20 55 -21 71 -1 10 12 10 18 0 30 -7 8 -18 15 -26 15 -7 0 -16 5
-20 11 -5 9 1 10 20 5 21 -5 27 -3 24 6 -6 18 -64 23 -71 5z"/>
<path d="M1880 100 c0 -5 7 -10 15 -10 11 0 15 -11 15 -40 0 -22 5 -40 10 -40
6 0 10 18 10 40 0 28 4 40 14 40 8 0 18 5 21 10 4 6 -12 10 -39 10 -25 0 -46
-4 -46 -10z"/>
<path d="M1980 61 c0 -28 5 -51 10 -51 6 0 10 9 10 20 0 11 7 20 15 20 8 0 15
-9 15 -20 0 -11 7 -20 15 -20 10 0 14 12 12 48 -2 47 -2 47 -39 50 l-38 3 0
-50z m50 19 c0 -5 -7 -10 -15 -10 -8 0 -15 5 -15 10 0 6 7 10 15 10 8 0 15 -4
15 -10z"/>
<path d="M2080 60 c0 -27 5 -50 10 -50 6 0 10 23 10 50 0 28 -4 50 -10 50 -5
0 -10 -22 -10 -50z"/>
<path d="M2137 63 c-20 -53 -18 -60 12 -41 17 10 25 10 41 0 35 -22 39 -13 18
38 -27 64 -48 66 -71 3z m43 2 c0 -8 -4 -15 -10 -15 -5 0 -10 7 -10 15 0 8 5
15 10 15 6 0 10 -7 10 -15z"/>
</g>
</svg>
